# Blender v2.91.0 Alpha OBJ File: ''
# www.blender.org
o 18
v -0.005371 0.003379 0.005475
v -0.005371 0.003379 0.005100
v -0.005302 0.003379 0.005100
v -0.005302 0.003379 0.005475
v -0.005232 0.003379 0.005475
v -0.005232 0.003379 0.005100
v -0.005162 0.003379 0.005100
v -0.005162 0.003379 0.005475
v -0.005162 0.003379 0.004350
v -0.005302 0.003379 0.004350
v -0.005092 0.003379 0.005475
v -0.005092 0.003379 0.005100
v -0.005022 0.003379 0.005100
v -0.005022 0.003379 0.005475
v -0.004953 0.003379 0.005100
v -0.004953 0.003379 0.005475
v -0.005022 0.003379 0.004350
v -0.005092 0.003379 0.003600
v -0.005162 0.003379 0.003600
v -0.005022 0.003379 0.003600
v -0.005022 0.003379 0.003225
v -0.004953 0.003379 0.003225
v -0.004953 0.003379 0.003600
v -0.005162 0.003379 0.003225
v -0.005092 0.003379 0.003225
v -0.005232 0.003379 0.003600
v -0.005302 0.003379 0.003600
v -0.005302 0.003379 0.003225
v -0.005232 0.003379 0.003225
v -0.005371 0.003379 0.003600
v -0.005371 0.003379 0.003225
v -0.004883 0.003379 0.003600
v -0.004883 0.003379 0.002850
v -0.005022 0.003379 0.002850
v -0.004883 0.003379 0.004350
v -0.005162 0.003379 0.002850
v -0.004883 0.003380 0.005100
v -0.004883 0.003380 0.005850
v -0.005022 0.003379 0.005850
v -0.005162 0.003379 0.005850
v -0.005302 0.003379 0.002850
v -0.005441 0.003379 0.003600
v -0.005441 0.003379 0.002850
v -0.005441 0.003379 0.004350
v -0.005302 0.003379 0.005850
v -0.005441 0.003379 0.005100
v -0.005441 0.003379 0.005850
v -0.004883 0.003504 0.002850
v -0.004883 0.003629 0.002850
v -0.005022 0.003879 0.002850
v -0.004883 0.003755 0.002850
v -0.004883 0.003880 0.002850
v -0.005162 0.003879 0.002850
v -0.005441 0.003504 0.002850
v -0.005441 0.003629 0.002850
v -0.005441 0.003754 0.002850
v -0.005302 0.003879 0.002850
v -0.005441 0.003879 0.002850
v -0.004883 0.003630 0.003600
v -0.004883 0.003630 0.003225
v -0.004883 0.003755 0.003225
v -0.004883 0.003755 0.003600
v -0.004883 0.003505 0.003600
v -0.004883 0.003505 0.003225
v -0.004883 0.003505 0.005475
v -0.004883 0.003505 0.005100
v -0.004883 0.003630 0.005100
v -0.004883 0.003630 0.005475
v -0.004883 0.003755 0.005100
v -0.004883 0.003755 0.005475
v -0.004883 0.003880 0.003600
v -0.004883 0.003880 0.004350
v -0.004883 0.003880 0.005100
v -0.004883 0.003880 0.005850
v -0.004883 0.003755 0.005850
v -0.004883 0.003630 0.005850
v -0.004883 0.003505 0.005850
v -0.005441 0.003629 0.003600
v -0.005441 0.003629 0.003225
v -0.005441 0.003504 0.003225
v -0.005441 0.003504 0.003600
v -0.005441 0.003754 0.003600
v -0.005441 0.003754 0.003225
v -0.005441 0.003754 0.005475
v -0.005441 0.003754 0.005100
v -0.005441 0.003629 0.005100
v -0.005441 0.003629 0.005475
v -0.005441 0.003504 0.005100
v -0.005441 0.003504 0.005475
v -0.005441 0.003504 0.005850
v -0.005441 0.003629 0.005850
v -0.005441 0.003879 0.004350
v -0.005441 0.003879 0.003600
v -0.005441 0.003754 0.005850
v -0.005441 0.003879 0.005100
v -0.005441 0.003879 0.005850
v -0.005232 0.003879 0.003600
v -0.005162 0.003879 0.004350
v -0.005162 0.003879 0.003600
v -0.005302 0.003879 0.004350
v -0.005302 0.003879 0.003600
v -0.005302 0.003879 0.003225
v -0.005371 0.003879 0.003225
v -0.005371 0.003879 0.003600
v -0.005162 0.003879 0.003225
v -0.005232 0.003879 0.003225
v -0.005232 0.003879 0.005475
v -0.005232 0.003879 0.005100
v -0.005302 0.003879 0.005100
v -0.005302 0.003879 0.005475
v -0.005162 0.003879 0.005475
v -0.005162 0.003879 0.005100
v -0.005371 0.003879 0.005100
v -0.005371 0.003879 0.005475
v -0.005092 0.003879 0.003600
v -0.005022 0.003879 0.004350
v -0.005022 0.003879 0.003600
v -0.005022 0.003879 0.003225
v -0.005092 0.003879 0.003225
v -0.004953 0.003879 0.003600
v -0.004953 0.003879 0.003225
v -0.004953 0.003879 0.005475
v -0.004953 0.003879 0.005100
v -0.005022 0.003879 0.005100
v -0.005022 0.003879 0.005475
v -0.005092 0.003879 0.005475
v -0.005092 0.003879 0.005100
v -0.005302 0.003879 0.005850
v -0.005162 0.003879 0.005850
v -0.005022 0.003879 0.005850
vt 0.156968 0.093750
vt 0.156968 0.187499
vt 0.174409 0.187499
vt 0.174409 0.093750
vt 0.191849 0.093750
vt 0.191849 0.187499
vt 0.209290 0.187499
vt 0.209290 0.093750
vt 0.209290 0.374998
vt 0.174409 0.374998
vt 0.226730 0.093750
vt 0.226730 0.187499
vt 0.244171 0.187499
vt 0.244171 0.093750
vt 0.261611 0.187499
vt 0.261611 0.093750
vt 0.244171 0.374998
vt 0.226730 0.562497
vt 0.209290 0.562497
vt 0.244171 0.562497
vt 0.244171 0.656247
vt 0.261611 0.656247
vt 0.261611 0.562497
vt 0.209290 0.656247
vt 0.226730 0.656247
vt 0.191849 0.562497
vt 0.174409 0.562497
vt 0.174409 0.656247
vt 0.191849 0.656247
vt 0.156968 0.562497
vt 0.156968 0.656247
vt 0.279052 0.562497
vt 0.279052 0.749996
vt 0.244170 0.749996
vt 0.279052 0.374998
vt 0.209289 0.749996
vt 0.279052 0.187499
vt 0.279052 0.000000
vt 0.244171 0.000000
vt 0.209290 0.000000
vt 0.174407 0.749996
vt 0.139526 0.562497
vt 0.139526 0.749996
vt 0.139527 0.374998
vt 0.174409 0.000000
vt 0.139527 0.187499
vt 0.139528 0.000000
vt 0.404053 0.104644
vt 0.372803 0.139526
vt 0.404053 0.139526
vt 0.404053 0.069763
vt 0.341552 0.139526
vt 0.279052 0.104645
vt 0.310302 0.139526
vt 0.279052 0.139526
vt 0.279052 0.069763
vt 0.372803 0.000000
vt 0.404053 0.034882
vt 0.404053 0.000000
vt 0.341552 0.000000
vt 0.310302 0.000000
vt 0.279052 0.034882
vt 0.279052 0.000000
vt 0.187499 0.812499
vt 0.093750 0.812499
vt 0.093750 0.843748
vt 0.187499 0.843748
vt 0.187499 0.781249
vt 0.093750 0.781249
vt 0.656247 0.781249
vt 0.562497 0.781249
vt 0.562497 0.812499
vt 0.656247 0.812499
vt 0.562497 0.843748
vt 0.656247 0.843748
vt 0.187499 0.874998
vt 0.000000 0.874998
vt 0.000000 0.843748
vt 0.000000 0.812497
vt 0.374998 0.874998
vt 0.562497 0.874998
vt 0.749996 0.874998
vt 0.749996 0.843748
vt 0.749996 0.812499
vt 0.374998 0.749998
vt 0.000000 0.781247
vt 0.187499 0.749997
vt 0.000000 0.749996
vt 0.749996 0.781249
vt 0.562497 0.749998
vt 0.749996 0.749999
vt 0.187499 0.937500
vt 0.093750 0.937500
vt 0.093750 0.968750
vt 0.187499 0.968750
vt 0.187499 0.906250
vt 0.093750 0.906250
vt 0.656247 0.906250
vt 0.562497 0.906250
vt 0.562497 0.937500
vt 0.656247 0.937500
vt 0.562497 0.968750
vt 0.656247 0.968750
vt 0.187499 1.000000
vt 0.000000 1.000000
vt 0.000000 0.968750
vt 0.000000 0.937499
vt 0.374998 1.000000
vt 0.562497 1.000000
vt 0.749996 1.000000
vt 0.749996 0.968750
vt 0.749996 0.937500
vt 0.374998 0.874999
vt 0.000000 0.906249
vt 0.187499 0.874999
vt 0.000000 0.874998
vt 0.749996 0.906250
vt 0.562497 0.875000
vt 0.749996 0.875001
vt 0.087204 0.562497
vt 0.069764 0.374998
vt 0.069764 0.562497
vt 0.104645 0.374998
vt 0.104645 0.562497
vt 0.104645 0.656247
vt 0.122085 0.656247
vt 0.122085 0.562497
vt 0.069764 0.656247
vt 0.087204 0.656247
vt 0.087204 0.093750
vt 0.087204 0.187499
vt 0.104644 0.187499
vt 0.104644 0.093750
vt 0.069764 0.093750
vt 0.069764 0.187499
vt 0.122085 0.187499
vt 0.122085 0.093750
vt 0.052323 0.562497
vt 0.034883 0.374998
vt 0.034883 0.562497
vt 0.034883 0.656247
vt 0.052323 0.656247
vt 0.017442 0.562497
vt 0.017443 0.656247
vt 0.017442 0.093750
vt 0.017442 0.187499
vt 0.034883 0.187499
vt 0.034883 0.093750
vt 0.052323 0.093750
vt 0.052323 0.187499
vt 0.139526 0.562497
vt 0.139526 0.749996
vt 0.104644 0.749996
vt 0.139526 0.374998
vt 0.069763 0.749996
vt 0.139526 0.187499
vt 0.104644 0.000000
vt 0.139525 0.000000
vt 0.069763 0.000000
vt 0.034881 0.749996
vt 0.000000 0.562497
vt 0.000000 0.749996
vt 0.000001 0.374998
vt 0.034883 0.000000
vt 0.000001 0.187499
vt 0.000002 0.000000
vt 0.313932 0.139526
vt 0.279052 0.139526
vt 0.279052 0.170776
vt 0.279052 0.202026
vt 0.348813 0.139526
vt 0.313932 0.264525
vt 0.279052 0.233275
vt 0.279052 0.264525
vt 0.348813 0.264525
vt 0.418575 0.170776
vt 0.418575 0.139526
vt 0.383694 0.139526
vt 0.418575 0.202026
vt 0.383694 0.264525
vt 0.418575 0.264525
vt 0.418575 0.233275
vn 0.0001 -1.0000 0.0000
vn -0.0001 -1.0000 0.0000
vn 0.0000 -1.0000 0.0000
vn 0.0000 0.0000 -1.0000
vn 1.0000 0.0001 0.0000
vn 1.0000 0.0000 0.0000
vn -1.0000 -0.0001 0.0000
vn -1.0000 0.0000 0.0000
vn -0.0001 1.0000 0.0000
vn 0.0001 1.0000 0.0000
vn -0.0000 1.0000 0.0000
vn 0.0000 0.0000 1.0000
s off
f 1/1/1 2/2/1 3/3/1 4/4/1
f 5/5/1 6/6/1 7/7/1 8/8/1
f 4/4/1 3/3/1 6/6/1 5/5/1
f 6/6/1 9/9/1 7/7/1
f 10/10/1 6/6/1 3/3/1
f 9/9/1 6/6/1 10/10/1
f 11/11/1 12/12/1 13/13/1 14/14/1
f 8/8/1 7/7/1 12/12/1 11/11/1
f 14/14/1 13/13/1 15/15/1 16/16/1
f 12/12/1 17/17/1 13/13/1
f 9/9/1 12/12/1 7/7/1
f 17/17/1 12/12/1 9/9/1
f 18/18/1 9/9/1 19/19/1
f 17/17/1 18/18/1 20/20/1
f 9/9/1 18/18/1 17/17/1
f 20/20/1 21/21/1 22/22/1 23/23/1
f 19/19/1 24/24/1 25/25/1 18/18/1
f 18/18/1 25/25/1 21/21/1 20/20/1
f 26/26/1 10/10/1 27/27/1
f 9/9/1 26/26/1 19/19/1
f 10/10/1 26/26/1 9/9/1
f 27/27/1 28/28/1 29/29/1 26/26/1
f 26/26/1 29/29/1 24/24/1 19/19/1
f 30/30/1 31/31/1 28/28/1 27/27/1
f 32/32/2 22/22/2 33/33/2
f 33/33/3 22/22/3 21/21/3 34/34/3
f 35/35/2 23/23/2 32/32/2
f 22/22/2 32/32/2 23/23/2
f 23/23/3 35/35/3 17/17/3
f 25/25/1 34/34/1 21/21/1
f 25/25/1 24/24/1 36/36/1
f 20/20/1 23/23/1 17/17/1
f 36/36/3 34/34/3 25/25/3
f 37/37/3 15/15/3 35/35/3
f 17/17/3 35/35/3 15/15/3
f 38/38/3 16/16/3 15/15/3 37/37/3
f 39/39/1 14/14/1 16/16/1 38/38/1
f 13/13/1 17/17/1 15/15/1
f 40/40/1 8/8/1 11/11/1 39/39/1
f 14/14/1 39/39/1 11/11/1
f 36/36/3 29/29/3 28/28/3 41/41/3
f 31/31/1 41/41/1 28/28/1
f 42/42/1 43/43/1 31/31/1
f 41/41/3 31/31/3 43/43/3
f 44/44/1 42/42/1 30/30/1
f 31/31/1 30/30/1 42/42/1
f 10/10/1 30/30/1 27/27/1
f 44/44/1 30/30/1 10/10/1
f 2/2/1 10/10/1 3/3/1
f 45/45/1 4/4/1 5/5/1 40/40/1
f 40/40/1 5/5/1 8/8/1
f 1/1/1 46/46/1 2/2/1
f 44/44/1 10/10/1 2/2/1
f 47/47/1 1/1/1 45/45/1
f 1/1/1 4/4/1 45/45/1
f 46/46/1 1/1/1 47/47/1
f 2/2/1 46/46/1 44/44/1
f 36/36/1 24/24/1 29/29/1
f 34/48/4 48/49/4 33/50/4
f 48/49/4 34/48/4 36/51/4
f 49/52/4 48/49/4 36/51/4
f 50/53/4 51/54/4 49/52/4
f 51/54/4 50/53/4 52/55/4
f 53/56/4 50/53/4 49/52/4
f 53/56/4 49/52/4 36/51/4
f 54/57/4 41/58/4 43/59/4
f 41/58/4 54/57/4 55/60/4
f 36/51/4 55/60/4 53/56/4
f 56/61/4 57/62/4 53/56/4
f 57/62/4 56/61/4 58/63/4
f 56/61/4 53/56/4 55/60/4
f 41/58/4 55/60/4 36/51/4
f 59/64/5 60/65/5 61/66/5 62/67/5
f 63/68/6 64/69/6 60/65/6 59/64/6
f 65/70/6 66/71/6 67/72/6 68/73/6
f 68/73/5 67/72/5 69/74/5 70/75/5
f 71/76/6 61/66/6 52/77/6
f 51/78/6 52/77/6 61/66/6
f 62/67/6 61/66/6 71/76/6
f 51/78/6 61/66/6 60/65/6 49/79/6
f 72/80/6 59/64/6 62/67/6
f 72/80/6 62/67/6 71/76/6
f 69/74/6 72/80/6 73/81/6
f 74/82/6 70/75/6 69/74/6 73/81/6
f 74/82/6 75/83/6 70/75/6
f 70/75/5 75/83/5 76/84/5 68/73/5
f 67/72/6 72/80/6 69/74/6
f 59/64/6 72/80/6 35/85/6
f 49/79/6 60/65/6 64/69/6 48/86/6
f 32/87/5 64/69/5 63/68/5
f 63/68/6 59/64/6 35/85/6
f 64/69/6 32/87/6 33/88/6
f 32/87/6 63/68/6 35/85/6
f 33/88/6 48/86/6 64/69/6
f 72/80/6 67/72/6 35/85/6
f 68/73/6 76/84/6 77/89/6 65/70/6
f 65/70/5 37/90/5 66/71/5
f 35/85/6 67/72/6 66/71/6
f 77/89/5 38/91/5 65/70/5
f 37/90/6 65/70/6 38/91/6
f 66/71/6 37/90/6 35/85/6
f 78/92/7 79/93/7 80/94/7 81/95/7
f 82/96/7 83/97/7 79/93/7 78/92/7
f 84/98/7 85/99/7 86/100/7 87/101/7
f 87/101/7 86/100/7 88/102/7 89/103/7
f 42/104/8 80/94/8 43/105/8
f 54/106/8 43/105/8 80/94/8
f 81/95/8 80/94/8 42/104/8
f 54/106/8 80/94/8 79/93/8 55/107/8
f 44/108/7 78/92/7 81/95/7
f 44/108/8 81/95/8 42/104/8
f 88/102/8 44/108/8 46/109/8
f 47/110/8 89/103/8 88/102/8 46/109/8
f 47/110/8 90/111/8 89/103/8
f 89/103/7 90/111/7 91/112/7 87/101/7
f 86/100/7 44/108/7 88/102/7
f 92/113/8 82/96/8 78/92/8 44/108/8
f 55/107/8 79/93/8 83/97/8 56/114/8
f 93/115/8 83/97/8 82/96/8
f 83/97/8 93/115/8 58/116/8
f 93/115/8 82/96/8 92/113/8
f 58/116/8 56/114/8 83/97/8
f 44/108/8 86/100/8 85/99/8 92/113/8
f 87/101/7 91/112/7 94/117/7 84/98/7
f 84/98/8 95/118/8 85/99/8
f 94/117/8 96/119/8 84/98/8
f 95/118/8 84/98/8 96/119/8
f 85/99/8 95/118/8 92/113/8
f 97/120/9 98/121/9 99/122/9
f 100/123/9 97/120/9 101/124/9
f 98/121/9 97/120/9 100/123/9
f 101/124/9 102/125/9 103/126/9 104/127/9
f 99/122/9 105/128/9 106/129/9 97/120/9
f 97/120/9 106/129/9 102/125/9 101/124/9
f 107/130/9 108/131/9 109/132/9 110/133/9
f 111/134/9 112/135/9 108/131/9 107/130/9
f 110/133/9 109/132/9 113/136/9 114/137/9
f 108/131/9 100/123/9 109/132/9
f 98/121/9 108/131/9 112/135/9
f 100/123/9 108/131/9 98/121/9
f 115/138/9 116/139/9 117/140/9
f 98/121/9 115/138/9 99/122/9
f 116/139/9 115/138/9 98/121/9
f 117/140/9 118/141/9 119/142/9 115/138/9
f 115/138/9 119/142/9 105/128/9 99/122/9
f 120/143/9 121/144/9 118/141/9 117/140/9
f 122/145/9 123/146/9 124/147/9 125/148/9
f 126/149/9 127/150/9 112/135/9 111/134/9
f 125/148/9 124/147/9 127/150/9 126/149/9
f 127/150/9 98/121/9 112/135/9
f 116/139/9 127/150/9 124/147/9
f 98/121/9 127/150/9 116/139/9
f 93/151/10 103/126/10 58/152/10
f 58/152/11 103/126/11 102/125/11 57/153/11
f 92/154/10 104/127/10 93/151/10
f 103/126/10 93/151/10 104/127/10
f 104/127/11 92/154/11 100/123/11
f 106/129/9 57/153/9 102/125/9
f 106/129/9 105/128/9 53/155/9
f 101/124/9 104/127/9 100/123/9
f 53/155/11 57/153/11 106/129/11
f 114/137/11 113/136/11 95/156/11
f 113/136/11 92/154/11 95/156/11
f 128/157/9 114/137/9 96/158/9
f 95/156/11 96/158/11 114/137/11
f 114/137/9 128/157/9 110/133/9
f 113/136/9 109/132/9 100/123/9
f 129/159/9 107/130/9 110/133/9 128/157/9
f 129/159/9 111/134/9 107/130/9
f 113/136/11 100/123/11 92/154/11
f 53/155/11 119/142/11 118/141/11 50/160/11
f 121/144/9 50/160/9 118/141/9
f 71/161/9 52/162/9 121/144/9
f 50/160/11 121/144/11 52/162/11
f 72/163/9 71/161/9 120/143/9
f 121/144/9 120/143/9 71/161/9
f 116/139/9 120/143/9 117/140/9
f 72/163/9 120/143/9 116/139/9
f 123/146/9 116/139/9 124/147/9
f 130/164/9 126/149/9 111/134/9 129/159/9
f 126/149/9 130/164/9 125/148/9
f 122/145/9 73/165/9 123/146/9
f 72/163/9 116/139/9 123/146/9
f 74/166/9 122/145/9 125/148/9 130/164/9
f 73/165/9 122/145/9 74/166/9
f 123/146/9 73/165/9 72/163/9
f 53/155/9 105/128/9 119/142/9
f 39/167/12 38/168/12 77/169/12
f 76/170/12 39/167/12 77/169/12
f 40/171/12 39/167/12 76/170/12
f 130/172/12 76/170/12 75/173/12
f 75/173/12 74/174/12 130/172/12
f 129/175/12 76/170/12 130/172/12
f 129/175/12 40/171/12 76/170/12
f 90/176/12 47/177/12 45/178/12
f 45/178/12 91/179/12 90/176/12
f 40/171/12 129/175/12 91/179/12
f 128/180/12 91/179/12 129/175/12
f 128/180/12 96/181/12 94/182/12
f 128/180/12 94/182/12 91/179/12
f 45/178/12 40/171/12 91/179/12
